<svg id="Layer_1" data-name="Layer 1" xmlns="http://www.w3.org/2000/svg" viewBox="0 0 253.99 237.74"><path d="M23,222.62c.23-.7.47-1.4.7-2.1,1.94-6,5.45-8.61,11.69-8.73,14.71-.28,29.42-.55,44.07-2.07,19.13-2,38.21-4.13,56.48-10.82,13.58-5,25.51-12.64,36.81-21.45,19.56-15.23,36.77-32.72,50.79-53.22,10.23-15,15.89-31.57,17.73-49.54,1.13-11,1.5-22.09,2-33.16.23-5.43,3.1-8.84,8.44-9.64,10.88-1.62,24,6.13,25,16.75,0,.12.2.23.31.34v6c-.46,6-3.85,10.4-7.56,14.66a42.28,42.28,0,0,0-5.74,8.66c-3.15,6.13-2.79,12.23.15,18.35a149.34,149.34,0,0,1,5.69,14,100.4,100.4,0,0,1,5.27,26.15,93.57,93.57,0,0,1-3.24,34.09c-3.54,12.29-9.49,23.38-16.75,33.84a162,162,0,0,1-23,26.56,136.11,136.11,0,0,1-27.17,19.4,153.21,153.21,0,0,1-49.47,17,147.88,147.88,0,0,1-33.58,1.41c-8.4-.56-16.82-.92-25.16-2.13C76.35,264,57.21,258.31,40,247.27A63.16,63.16,0,0,1,27.51,236.7a15.72,15.72,0,0,1-4.5-9.12Z" transform="translate(-23.01 -31.68)"/></svg>