<svg id="Layer_1" data-name="Layer 1" xmlns="http://www.w3.org/2000/svg" viewBox="0 0 296.76 296.76"><defs><style>.cls-1{fill:#c9d751;}</style></defs><path class="cls-1" d="M258,1.62H42A40.41,40.41,0,0,0,1.62,42V258A40.41,40.41,0,0,0,42,298.38H258A40.41,40.41,0,0,0,298.38,258V42A40.41,40.41,0,0,0,258,1.62ZM252.77,146.3a95.32,95.32,0,0,1-12.62,31.86,103.25,103.25,0,0,1-31.84,32.6c-29.45,19.34-61,21.5-82.29,19.91-12.62-1-25.53-3-36.84-8.07-20.69-9.19-34-19.11-40.22-24.29A7,7,0,0,1,47.09,190l1.42-3a7,7,0,0,1,7.33-4c5.47.74,13.64,1.4,14.38,1.42q10.65.33,21.3-.23a239.2,239.2,0,0,0,42.07-5.92c25.38-6,45.27-16.24,59.14-30.52,8.55-8.83,15.36-19.13,18.84-31.11,3.67-12.66,4.48-28.95,4.62-38.3a8.22,8.22,0,0,1,7.6-8.07l16.26-1.26a7,7,0,0,1,7.08,9.59c-4.14,10.51-10.06,25.54-11,28.12.29.17.59.41,1,.64a41.12,41.12,0,0,1,11.53,12.53C253.24,127.64,254.64,136.52,252.77,146.3Z" transform="translate(-1.62 -1.62)"/></svg>